<?xml version="1.0" standalone="no"?>
<!DOCTYPE svg PUBLIC "-//W3C//DTD SVG 20010904//EN"
 "http://www.w3.org/TR/2001/REC-SVG-20010904/DTD/svg10.dtd">
<svg version="1.0" xmlns="http://www.w3.org/2000/svg"
 width="170.000000pt" height="170.000000pt" viewBox="0 0 170.000000 170.000000"
 preserveAspectRatio="xMidYMid meet">
<metadata>
Created by potrace 1.11, written by Peter Selinger 2001-2013
</metadata>
<g transform="translate(0.000000,170.000000) scale(0.100000,-0.100000)"
fill="#000000" stroke="none">
<path d="M0 1579 l0 -121 38 5 c101 11 202 115 202 207 l0 30 -120 0 -120 0 0
-121z"/>
<path d="M325 1688 c-2 -7 -6 -31 -10 -53 -21 -122 -141 -237 -265 -252 l-50
-6 0 -386 0 -386 134 0 133 0 -40 45 c-181 204 -108 532 151 673 160 87 378
64 556 -58 l39 -27 189 189 188 188 175 -175 175 -175 0 218 0 217 -685 0
c-540 0 -686 -3 -690 -12z"/>
<path d="M1190 1342 l-162 -161 43 -53 c229 -277 421 -457 537 -504 93 -38 87
-55 90 257 l2 274 -174 174 -174 174 -162 -161z"/>
<path d="M502 1284 c-177 -46 -292 -190 -295 -369 -1 -86 30 -161 89 -220 87
-85 225 -112 321 -62 100 53 153 194 105 286 -41 82 -142 121 -217 85 -75 -35
-101 -136 -47 -186 15 -14 37 -29 50 -33 17 -5 22 -14 22 -39 0 -43 -4 -46
-47 -34 -82 22 -133 90 -133 175 1 200 250 283 398 132 52 -53 67 -94 67 -184
0 -86 -19 -140 -70 -199 -14 -16 -25 -30 -25 -30 0 -1 169 -1 376 -1 l375 0
-48 39 c-69 57 -246 237 -333 341 -166 197 -218 241 -333 284 -72 26 -185 33
-255 15z"/>
<path d="M0 263 l0 -263 265 0 265 0 -2 262 -3 263 -262 1 -263 1 0 -264z"/>
<path d="M609 449 c0 -44 0 -153 0 -244 0 -91 0 -174 0 -185 1 -18 8 -20 59
-20 l57 0 -2 257 c0 142 -1 261 -2 264 -1 4 -26 7 -56 7 l-55 0 -1 -79z"/>
<path d="M806 512 c-2 -10 -3 -127 -3 -262 l2 -245 58 -3 57 -3 0 264 0 264
-55 1 c-42 0 -55 -4 -59 -16z"/>
<path d="M1006 522 c-3 -3 -6 -122 -6 -264 l0 -258 58 0 57 0 -1 258 c-1 141
-2 260 -3 264 -1 8 -97 9 -105 0z"/>
<path d="M1199 525 c-1 0 -2 -118 -3 -263 l-1 -262 57 0 58 0 0 265 0 265 -55
-2 c-30 -1 -56 -2 -56 -3z"/>
<path d="M1396 522 c-3 -3 -6 -122 -6 -264 l0 -258 59 0 59 0 1 260 c1 143 -2
261 -6 261 -29 5 -103 6 -107 1z"/>
<path d="M1590 473 c-1 -29 -1 -136 -1 -238 0 -102 0 -196 1 -210 0 -24 3 -25
55 -25 l55 0 0 265 0 265 -55 -2 -55 -2 0 -53z"/>
</g>
</svg>
