<?xml version="1.0" standalone="no"?>
<!DOCTYPE svg PUBLIC "-//W3C//DTD SVG 20010904//EN"
 "http://www.w3.org/TR/2001/REC-SVG-20010904/DTD/svg10.dtd">
<svg version="1.0" xmlns="http://www.w3.org/2000/svg"
 width="600.000000pt" height="600.000000pt" viewBox="0 0 600.000000 600.000000"
 preserveAspectRatio="xMidYMid meet">
<metadata>
Created by potrace 1.11, written by Peter Selinger 2001-2013
</metadata>
<g transform="translate(0.000000,600.000000) scale(0.100000,-0.100000)"
fill="#000000" stroke="none">
<path d="M2720 5994 c-14 -2 -65 -9 -115 -15 -109 -13 -299 -52 -415 -84
-1084 -305 -1906 -1187 -2133 -2290 -47 -226 -52 -285 -52 -605 0 -320 5 -379
52 -605 243 -1179 1159 -2095 2338 -2338 226 -47 285 -52 605 -52 320 0 379 5
605 52 1179 243 2095 1159 2338 2338 47 226 52 285 52 605 0 320 -5 379 -52
605 -241 1170 -1148 2085 -2315 2334 -218 47 -284 53 -588 56 -162 2 -306 1
-320 -1z m2380 -2425 c95 -43 150 -129 150 -234 0 -105 -55 -191 -150 -234
-43 -20 -63 -21 -555 -21 l-510 0 -50 24 c-93 44 -145 126 -145 231 0 105 52
187 145 231 l50 24 510 0 c492 0 512 -1 555 -21z m-3323 -23 c42 -21 98 -77
119 -119 10 -17 19 -61 22 -97 8 -119 6 -121 -396 -522 -399 -397 -396 -395
-515 -386 -73 6 -113 24 -162 73 -49 49 -67 89 -73 162 -9 119 -11 116 382
512 398 400 404 405 521 398 39 -2 85 -11 102 -21z m880 0 c42 -21 98 -77 119
-119 10 -17 19 -61 22 -97 8 -119 6 -121 -396 -522 -399 -397 -396 -395 -515
-386 -73 6 -113 24 -162 73 -49 49 -67 89 -73 162 -9 119 -11 116 382 512 398
400 404 405 521 398 39 -2 85 -11 102 -21z m880 0 c42 -21 98 -77 119 -119 10
-17 19 -61 22 -97 8 -119 6 -121 -396 -522 -399 -397 -396 -395 -515 -386 -73
6 -113 24 -162 73 -49 49 -67 89 -73 162 -9 119 -11 116 382 512 398 400 404
405 521 398 39 -2 85 -11 102 -21z m1213 -647 c95 -43 150 -129 150 -234 0
-105 -55 -191 -150 -234 -43 -20 -63 -21 -555 -21 l-510 0 -50 24 c-93 44
-145 126 -145 231 0 105 52 187 145 231 l50 24 510 0 c492 0 512 -1 555 -21z"/>
</g>
</svg>
